<svg xmlns="http://www.w3.org/2000/svg" xmlns:xlink="http://www.w3.org/1999/xlink" width="474" zoomAndPan="magnify" viewBox="0 0 355.5 129.000003" height="172" preserveAspectRatio="xMidYMid meet" version="1.0"><defs><clipPath id="60fed1b5f8"><path d="M 308 27 L 353.632812 27 L 353.632812 93 L 308 93 Z M 308 27 " clip-rule="nonzero"/></clipPath><clipPath id="843af8c937"><path d="M 154.292969 26 L 183 26 L 183 93 L 154.292969 93 Z M 154.292969 26 " clip-rule="nonzero"/></clipPath><clipPath id="95a14e3c3e"><path d="M 4.394531 0 L 132.390625 0 L 132.390625 127.996094 L 4.394531 127.996094 Z M 4.394531 0 " clip-rule="nonzero"/></clipPath><clipPath id="ff13ca1f37"><path d="M 21.511719 0 L 115.273438 0 C 119.8125 0 124.167969 1.804688 127.378906 5.011719 C 130.585938 8.222656 132.390625 12.578125 132.390625 17.117188 L 132.390625 110.878906 C 132.390625 115.417969 130.585938 119.773438 127.378906 122.984375 C 124.167969 126.191406 119.8125 127.996094 115.273438 127.996094 L 21.511719 127.996094 C 16.972656 127.996094 12.617188 126.191406 9.410156 122.984375 C 6.199219 119.773438 4.394531 115.417969 4.394531 110.878906 L 4.394531 17.117188 C 4.394531 12.578125 6.199219 8.222656 9.410156 5.011719 C 12.617188 1.804688 16.972656 0 21.511719 0 Z M 21.511719 0 " clip-rule="nonzero"/></clipPath><clipPath id="da140f96e3"><path d="M 20 35.277344 L 108 35.277344 L 108 90 L 20 90 Z M 20 35.277344 " clip-rule="nonzero"/></clipPath></defs><g clip-path="url(#60fed1b5f8)"><path fill="#300d38" d="M 308.640625 27.890625 L 319.4375 27.890625 L 319.4375 51.648438 C 320.078125 50.816406 320.523438 50.066406 321.078125 49.402344 C 323.242188 46.980469 326.191406 45.394531 329.40625 44.917969 C 333.054688 44.1875 336.835938 44.535156 340.292969 45.914062 C 342.324219 46.792969 344.132812 48.121094 345.578125 49.792969 C 347.023438 51.464844 348.074219 53.445312 348.648438 55.578125 C 349.429688 58.15625 349.820312 60.832031 349.8125 63.523438 C 349.8125 68.507812 349.8125 73.492188 349.8125 78.476562 C 349.820312 79.207031 349.921875 79.933594 350.121094 80.636719 C 350.207031 81.15625 350.488281 81.625 350.902344 81.953125 C 351.316406 82.28125 351.839844 82.441406 352.367188 82.40625 C 353.035156 82.40625 353.703125 82.40625 354.421875 82.40625 C 354.421875 82.574219 354.421875 82.769531 354.421875 82.988281 C 354.421875 85.59375 354.421875 88.222656 354.421875 90.851562 C 354.421875 91.101562 354.230469 91.542969 354.089844 91.574219 C 350.574219 92.558594 346.824219 92.222656 343.539062 90.632812 C 342.328125 89.910156 341.304688 88.914062 340.546875 87.726562 C 339.789062 86.539062 339.320312 85.191406 339.179688 83.792969 C 338.972656 82.539062 338.859375 81.269531 338.847656 80 C 338.847656 74.933594 338.847656 69.863281 338.847656 64.796875 C 338.898438 62.953125 338.546875 61.121094 337.820312 59.425781 C 337.097656 57.792969 335.875 56.421875 334.332031 55.515625 C 332.789062 54.605469 331 54.203125 329.210938 54.359375 C 326.625 54.433594 324.171875 55.519531 322.382812 57.386719 C 320.59375 59.253906 319.617188 61.746094 319.660156 64.328125 C 319.660156 73.023438 319.660156 81.714844 319.660156 90.410156 L 319.660156 91.488281 L 308.832031 91.488281 Z M 308.640625 27.890625 " fill-opacity="1" fill-rule="nonzero"/></g><path fill="#300d38" d="M 227.953125 61.78125 C 227.265625 58.167969 225.65625 54.792969 223.277344 51.984375 C 220.898438 49.175781 217.832031 47.027344 214.375 45.75 C 209.765625 43.996094 204.734375 43.679688 199.9375 44.835938 C 196.355469 45.46875 192.992188 46.992188 190.15625 49.261719 C 187.316406 51.527344 185.09375 54.472656 183.695312 57.820312 C 181.246094 63.542969 180.8125 69.929688 182.472656 75.929688 C 183.054688 78.527344 184.144531 80.980469 185.683594 83.152344 C 187.222656 85.324219 189.179688 87.171875 191.441406 88.582031 C 195.050781 90.832031 199.128906 92.21875 203.363281 92.632812 C 207.597656 93.042969 211.871094 92.472656 215.847656 90.964844 C 219.546875 89.617188 222.847656 87.371094 225.453125 84.429688 L 218.957031 78.144531 C 217.632812 79.261719 216.242188 80.296875 214.792969 81.246094 C 212.8125 82.351562 210.628906 83.046875 208.371094 83.292969 C 206.117188 83.542969 203.832031 83.335938 201.660156 82.683594 C 199.964844 82.304688 198.375 81.550781 197.007812 80.476562 C 195.644531 79.40625 194.539062 78.039062 193.773438 76.484375 C 192.953125 74.859375 192.515625 73.070312 192.496094 71.25 L 228.371094 71.25 C 228.808594 68.09375 228.667969 64.886719 227.953125 61.78125 Z M 217.347656 63.523438 L 192.800781 63.523438 C 192.859375 62.082031 193.308594 60.683594 194.109375 59.480469 C 195.148438 57.871094 196.535156 56.515625 198.167969 55.511719 C 199.800781 54.503906 201.640625 53.875 203.546875 53.667969 C 205.175781 53.375 206.84375 53.40625 208.457031 53.757812 C 210.074219 54.109375 211.601562 54.773438 212.960938 55.714844 C 214.21875 56.511719 215.269531 57.585938 216.035156 58.863281 C 216.796875 60.136719 217.246094 61.574219 217.347656 63.054688 C 217.359375 63.210938 217.359375 63.367188 217.347656 63.523438 Z M 217.347656 63.523438 " fill-opacity="1" fill-rule="nonzero"/><path fill="#300d38" d="M 303.335938 51.980469 L 302.808594 52.53125 C 300.726562 54.691406 298.644531 56.824219 296.589844 58.984375 C 295.324219 57.414062 293.753906 56.117188 291.972656 55.175781 C 290.191406 54.234375 288.230469 53.664062 286.222656 53.503906 C 284.210938 53.34375 282.1875 53.597656 280.277344 54.246094 C 278.367188 54.894531 276.609375 55.921875 275.113281 57.273438 C 273.617188 58.625 272.414062 60.265625 271.578125 62.09375 C 270.742188 63.925781 270.289062 65.910156 270.246094 67.921875 C 270.207031 69.933594 270.578125 71.929688 271.34375 73.792969 C 272.105469 75.65625 273.242188 77.34375 274.683594 78.753906 C 276.171875 80.136719 277.921875 81.210938 279.832031 81.917969 C 281.742188 82.621094 283.773438 82.941406 285.808594 82.859375 C 287.839844 82.777344 289.839844 82.292969 291.683594 81.4375 C 293.53125 80.582031 295.1875 79.367188 296.5625 77.867188 L 303.335938 84.871094 C 299.925781 88.679688 295.363281 91.273438 290.339844 92.265625 C 286.6875 93.089844 282.894531 93.105469 279.230469 92.316406 C 275.566406 91.527344 272.117188 89.949219 269.128906 87.695312 C 266.472656 85.753906 264.269531 83.265625 262.664062 80.402344 C 261.058594 77.535156 260.089844 74.355469 259.828125 71.082031 C 259.097656 65.003906 260.71875 58.878906 264.363281 53.949219 C 268.003906 49.023438 273.390625 45.664062 279.429688 44.558594 C 285.261719 43.296875 291.351562 44.109375 296.644531 46.855469 C 299.148438 48.171875 301.414062 49.90625 303.335938 51.980469 Z M 303.335938 51.980469 " fill-opacity="1" fill-rule="nonzero"/><path fill="#300d38" d="M 256.023438 82.546875 L 256.023438 92.320312 C 255.050781 92.457031 254.082031 92.625 253.082031 92.707031 C 250.042969 93.046875 246.964844 92.78125 244.027344 91.933594 C 241.964844 91.300781 240.121094 90.097656 238.710938 88.46875 C 237.304688 86.835938 236.382812 84.839844 236.0625 82.714844 C 235.6875 80.730469 235.492188 78.71875 235.476562 76.703125 C 235.476562 69.949219 235.476562 63.191406 235.476562 56.4375 L 235.476562 55.441406 L 229.730469 55.441406 L 229.730469 45.5 L 235.285156 45.5 L 235.285156 27.890625 L 246.390625 27.890625 L 246.390625 45.445312 L 256.550781 45.445312 L 256.550781 55.414062 L 246.527344 55.414062 C 246.527344 55.714844 246.527344 55.910156 246.527344 56.105469 C 246.527344 63.027344 246.527344 69.929688 246.527344 76.816406 C 246.542969 77.621094 246.652344 78.417969 246.859375 79.195312 C 247.035156 80.242188 247.578125 81.191406 248.390625 81.871094 C 249.207031 82.554688 250.238281 82.921875 251.304688 82.90625 L 253.636719 82.90625 C 254.414062 82.90625 255.191406 82.65625 256.023438 82.546875 Z M 256.023438 82.546875 " fill-opacity="1" fill-rule="nonzero"/><g clip-path="url(#843af8c937)"><path fill="#300d38" d="M 161.789062 78.339844 C 161.785156 79.070312 161.683594 79.792969 161.484375 80.496094 C 161.382812 81.011719 161.101562 81.476562 160.6875 81.800781 C 160.277344 82.125 159.761719 82.292969 159.234375 82.269531 L 157.070312 82.269531 C 157.070312 82.4375 157.070312 82.628906 157.070312 82.824219 C 157.070312 85.59375 157.070312 88.085938 157.070312 90.714844 C 157.070312 90.964844 157.234375 91.40625 157.402344 91.433594 C 160.984375 92.476562 164.828125 92.140625 168.175781 90.492188 C 169.386719 89.769531 170.410156 88.777344 171.167969 87.589844 C 171.925781 86.402344 172.390625 85.054688 172.535156 83.652344 C 172.757812 82.40625 172.894531 79.777344 172.894531 79.777344 L 172.894531 55.414062 L 181.390625 55.414062 L 181.390625 45.472656 L 172.757812 45.472656 C 172.757812 44.003906 172.757812 42.703125 172.757812 41.320312 C 172.671875 40.550781 172.769531 39.769531 173.039062 39.042969 C 173.304688 38.316406 173.738281 37.664062 174.304688 37.132812 C 174.871094 36.601562 175.550781 36.207031 176.292969 35.984375 C 177.035156 35.757812 177.820312 35.707031 178.585938 35.835938 C 180.03125 35.835938 181.503906 35.835938 183 36.058594 L 183 26.976562 L 182.667969 26.976562 C 179.476562 26.492188 176.226562 26.492188 173.035156 26.976562 C 170.78125 27.242188 168.648438 28.125 166.867188 29.527344 C 165.089844 30.929688 163.734375 32.800781 162.953125 34.921875 C 162.109375 37.246094 161.714844 39.707031 161.789062 42.175781 L 161.789062 45.527344 L 154.292969 45.527344 L 154.292969 55.523438 L 161.789062 55.523438 Z M 161.789062 78.339844 " fill-opacity="1" fill-rule="nonzero"/></g><g clip-path="url(#95a14e3c3e)"><g clip-path="url(#ff13ca1f37)"><path fill="#300d38" d="M 4.394531 0 L 132.390625 0 L 132.390625 127.996094 L 4.394531 127.996094 Z M 4.394531 0 " fill-opacity="1" fill-rule="nonzero"/></g></g><g clip-path="url(#da140f96e3)"><path fill="#fba919" d="M 107.183594 70.980469 C 106.96875 67.996094 105.574219 64.425781 97.40625 66.730469 C 93.195312 67.925781 89.308594 67.980469 87.644531 66.335938 C 87.449219 66.109375 87.261719 65.871094 87.089844 65.625 C 86.460938 64.355469 86.730469 62.429688 88.324219 59.734375 C 88.671875 58.984375 89.234375 58.355469 89.945312 57.933594 C 90.652344 57.507812 91.476562 57.308594 92.300781 57.359375 C 93.609375 57.359375 95.09375 57.625 96.902344 57.589844 C 102.582031 57.449219 104.75 53.914062 104.5 50.664062 C 104.5 49.683594 103.136719 49.988281 100.664062 49.398438 C 98.191406 48.808594 96.242188 49.113281 95.738281 45.648438 C 95.441406 44.675781 94.855469 43.816406 94.0625 43.179688 C 93.265625 42.542969 92.296875 42.160156 91.28125 42.078125 C 89.292969 41.777344 85.046875 39.757812 81.878906 42.292969 L 79.136719 41.097656 C 77.34375 40.652344 77.34375 41.902344 75.679688 42.523438 C 74.015625 43.148438 71.078125 41.613281 71.882812 43.648438 C 72.476562 44.832031 73.472656 45.765625 74.695312 46.273438 C 75.917969 46.785156 77.285156 46.84375 78.546875 46.433594 C 76.59375 56.253906 67.136719 58.464844 59.257812 58.160156 C 54.226562 57.96875 49.476562 55.789062 46.054688 52.109375 C 42.632812 48.425781 40.816406 43.542969 41.003906 38.527344 C 41.113281 35.511719 40.128906 34.636719 39.214844 36.207031 C 38.847656 36.867188 38.570312 37.578125 38.390625 38.3125 C 38.300781 38.617188 38.230469 38.957031 38.15625 39.3125 C 37.652344 42.816406 38.074219 46.390625 39.390625 49.679688 C 40.703125 52.96875 42.859375 55.855469 45.644531 58.054688 C 44 59.5 42.835938 61.414062 42.3125 63.535156 C 41.953125 65.0625 41.910156 66.648438 42.1875 68.195312 C 42.1875 68.605469 42.347656 68.835938 42.347656 68.835938 C 43.03125 72.085938 36.976562 74.191406 34.34375 74.691406 L 33.769531 74.691406 C 33.417969 74.71875 33.066406 74.71875 32.714844 74.691406 C 32.324219 74.683594 31.933594 74.644531 31.550781 74.585938 C 29.953125 74.460938 28.789062 74.710938 27.769531 78.636719 C 26.335938 84.152344 22.164062 82.921875 21.160156 84.472656 C 19.585938 86.972656 21.929688 88.847656 24.921875 89.007812 C 26.878906 89.140625 28.8125 88.5 30.296875 87.222656 C 35.453125 82.582031 32.980469 80.527344 38.105469 80.867188 C 38.75 80.867188 39.535156 80.992188 40.46875 81.117188 C 46.144531 81.847656 50.175781 83.027344 55.765625 77.011719 C 56.101562 76.546875 56.492188 76.121094 56.929688 75.746094 C 57.214844 75.503906 57.542969 75.316406 57.894531 75.191406 C 58.222656 75.128906 58.554688 75.128906 58.878906 75.191406 C 61.046875 75.691406 65.917969 78.351562 71.417969 77.457031 C 73.574219 76.679688 75.542969 75.464844 77.203125 73.886719 C 77.203125 73.886719 78.082031 73.121094 78.636719 73.886719 C 79.191406 74.65625 80.121094 76.101562 80.945312 76.976562 C 82.898438 79.101562 82.933594 78.226562 87.089844 76.546875 C 87.5 76.371094 87.949219 76.191406 88.449219 76.011719 C 99.195312 72.085938 99.035156 70.816406 101.203125 75.101562 C 101.597656 75.886719 102.992188 75.976562 104.300781 75.441406 C 105.207031 75.117188 105.980469 74.503906 106.5 73.695312 C 107.019531 72.890625 107.261719 71.933594 107.183594 70.980469 Z M 107.183594 70.980469 " fill-opacity="1" fill-rule="nonzero"/></g></svg>